<svg xmlns="http://www.w3.org/2000/svg" width="512" height="512">
    <path fill="#fff"
        d="M141 51q0 21 15 36t36 15 36-15 15-36-15-36-36-15-36 15-15 36zm154 62 67-86-13-14-126 114q-1 1-2 1h-57q-1 0-2-1L39 14 25 27l94 123q4 6 8 15v1q12 29 12 77 0 32-18 154l-18 115h25l51-205 3-6q4-7 10-7l3 1q-8-38 2.5-75t36-65.5T295 113zm-81 231 42 168h26l-18-116q-31-20-50-52zm139-216h-1q-37 0-68 18t-49 49-18 67.5 18 67.5 49 49 67.5 18 67.5-18 49-49 18-67.5-18-67.5-48.5-49-66.5-18zm-45 230 33-86h-54l46-106h42l-23 65h64z" />
</svg>