<svg xmlns="http://www.w3.org/2000/svg" width="512" height="512">
    <path width="512" height="512" fill="#fff"
        d="M371 21q-33 0-63.5 14.5T256 75q-21-25-51.5-39.5T141 21q-39 0-71.5 19t-51 51T0 162q0 46 27 93 24 41 76 94 33 33 115 108l38 34 37-34q83-75 116-108 52-53 76-94 27-47 27-93 0-39-18.5-71t-51-51T371 21zM259 419l-3 3-3-3q-76-69-106-99-48-48-70-83-26-40-26-75 0-38 25.5-64T141 72q27 0 51.5 15t36.5 38q4 8 13 8h29q9 0 13-8 11-23 35.5-38T371 72q39 0 64.5 26t25.5 64q0 35-26 75-22 35-70 83-30 30-106 99z" />
</svg>